<mxfile host="Electron" agent="Mozilla/5.0 (Windows NT 10.0; Win64; x64) AppleWebKit/537.36 (KHTML, like Gecko) draw.io/27.0.5 Chrome/134.0.6998.205 Electron/35.3.0 Safari/537.36" version="27.0.5" pages="8">
  <diagram id="-tf8pMJhsVL-a9VUeY3z" name="RealEstateOwnership">
    <mxGraphModel dx="983" dy="586" grid="1" gridSize="10" guides="1" tooltips="1" connect="1" arrows="1" fold="1" page="1" pageScale="1" pageWidth="1169" pageHeight="1654" math="0" shadow="0">
      <root>
        <mxCell id="0" />
        <mxCell id="1" parent="0" />
        <mxCell id="j2tHILjY-5qL9ZZpUFgR-26" value="&lt;b&gt;&amp;lt;&amp;lt;interface&amp;gt;&amp;gt;&lt;/b&gt;&lt;div&gt;&lt;b&gt;RealEstateOwnership&lt;/b&gt;&lt;/div&gt;" style="swimlane;fontStyle=0;childLayout=stackLayout;horizontal=1;startSize=40;fillColor=none;horizontalStack=0;resizeParent=1;resizeParentMax=0;resizeLast=0;collapsible=1;marginBottom=0;whiteSpace=wrap;html=1;" vertex="1" parent="1">
          <mxGeometry x="360" y="480" width="440" height="170" as="geometry" />
        </mxCell>
        <mxCell id="j2tHILjY-5qL9ZZpUFgR-27" value="getCadastralNumber(): String" style="text;strokeColor=none;fillColor=none;align=left;verticalAlign=top;spacingLeft=4;spacingRight=4;overflow=hidden;rotatable=0;points=[[0,0.5],[1,0.5]];portConstraint=eastwest;whiteSpace=wrap;html=1;" vertex="1" parent="j2tHILjY-5qL9ZZpUFgR-26">
          <mxGeometry y="40" width="440" height="26" as="geometry" />
        </mxCell>
        <mxCell id="j2tHILjY-5qL9ZZpUFgR-36" value="setCadastralNumber(cadastralNumber: String): void" style="text;strokeColor=none;fillColor=none;align=left;verticalAlign=top;spacingLeft=4;spacingRight=4;overflow=hidden;rotatable=0;points=[[0,0.5],[1,0.5]];portConstraint=eastwest;whiteSpace=wrap;html=1;" vertex="1" parent="j2tHILjY-5qL9ZZpUFgR-26">
          <mxGeometry y="66" width="440" height="26" as="geometry" />
        </mxCell>
        <mxCell id="j2tHILjY-5qL9ZZpUFgR-28" value="getAddress(): String" style="text;strokeColor=none;fillColor=none;align=left;verticalAlign=top;spacingLeft=4;spacingRight=4;overflow=hidden;rotatable=0;points=[[0,0.5],[1,0.5]];portConstraint=eastwest;whiteSpace=wrap;html=1;" vertex="1" parent="j2tHILjY-5qL9ZZpUFgR-26">
          <mxGeometry y="92" width="440" height="26" as="geometry" />
        </mxCell>
        <mxCell id="j2tHILjY-5qL9ZZpUFgR-37" value="setAddress(address: String) : void" style="text;strokeColor=none;fillColor=none;align=left;verticalAlign=top;spacingLeft=4;spacingRight=4;overflow=hidden;rotatable=0;points=[[0,0.5],[1,0.5]];portConstraint=eastwest;whiteSpace=wrap;html=1;" vertex="1" parent="j2tHILjY-5qL9ZZpUFgR-26">
          <mxGeometry y="118" width="440" height="26" as="geometry" />
        </mxCell>
        <mxCell id="j2tHILjY-5qL9ZZpUFgR-29" value="calculateUtilityCost&lt;span style=&quot;background-color: transparent; color: light-dark(rgb(0, 0, 0), rgb(255, 255, 255));&quot;&gt;(): double&lt;/span&gt;" style="text;strokeColor=none;fillColor=none;align=left;verticalAlign=top;spacingLeft=4;spacingRight=4;overflow=hidden;rotatable=0;points=[[0,0.5],[1,0.5]];portConstraint=eastwest;whiteSpace=wrap;html=1;" vertex="1" parent="j2tHILjY-5qL9ZZpUFgR-26">
          <mxGeometry y="144" width="440" height="26" as="geometry" />
        </mxCell>
      </root>
    </mxGraphModel>
  </diagram>
  <diagram id="Inovqg_K_Wq8YmY-YAMx" name="VehicleOwnership">
    <mxGraphModel dx="257" dy="849" grid="1" gridSize="10" guides="1" tooltips="1" connect="1" arrows="1" fold="1" page="1" pageScale="1" pageWidth="1169" pageHeight="1654" math="0" shadow="0">
      <root>
        <mxCell id="0" />
        <mxCell id="1" parent="0" />
        <mxCell id="N2q2jcpLJrjOb07b2iFs-1" value="&lt;b&gt;&amp;lt;&amp;lt;interface&amp;gt;&amp;gt;&lt;/b&gt;&lt;div&gt;&lt;b&gt;VehicleOwnership&lt;/b&gt;&lt;/div&gt;" style="swimlane;fontStyle=0;childLayout=stackLayout;horizontal=1;startSize=40;fillColor=none;horizontalStack=0;resizeParent=1;resizeParentMax=0;resizeLast=0;collapsible=1;marginBottom=0;whiteSpace=wrap;html=1;" vertex="1" parent="1">
          <mxGeometry x="1520" y="1040" width="440" height="170" as="geometry" />
        </mxCell>
        <mxCell id="N2q2jcpLJrjOb07b2iFs-2" value="getRegistrationNumber(): String" style="text;strokeColor=none;fillColor=none;align=left;verticalAlign=top;spacingLeft=4;spacingRight=4;overflow=hidden;rotatable=0;points=[[0,0.5],[1,0.5]];portConstraint=eastwest;whiteSpace=wrap;html=1;" vertex="1" parent="N2q2jcpLJrjOb07b2iFs-1">
          <mxGeometry y="40" width="440" height="26" as="geometry" />
        </mxCell>
        <mxCell id="N2q2jcpLJrjOb07b2iFs-6" value="setRegistrationNumber(registrationNumber: String): void" style="text;strokeColor=none;fillColor=none;align=left;verticalAlign=top;spacingLeft=4;spacingRight=4;overflow=hidden;rotatable=0;points=[[0,0.5],[1,0.5]];portConstraint=eastwest;whiteSpace=wrap;html=1;" vertex="1" parent="N2q2jcpLJrjOb07b2iFs-1">
          <mxGeometry y="66" width="440" height="26" as="geometry" />
        </mxCell>
        <mxCell id="N2q2jcpLJrjOb07b2iFs-4" value="getYear(): int" style="text;strokeColor=none;fillColor=none;align=left;verticalAlign=top;spacingLeft=4;spacingRight=4;overflow=hidden;rotatable=0;points=[[0,0.5],[1,0.5]];portConstraint=eastwest;whiteSpace=wrap;html=1;" vertex="1" parent="N2q2jcpLJrjOb07b2iFs-1">
          <mxGeometry y="92" width="440" height="26" as="geometry" />
        </mxCell>
        <mxCell id="N2q2jcpLJrjOb07b2iFs-7" value="setYear(year: int): void" style="text;strokeColor=none;fillColor=none;align=left;verticalAlign=top;spacingLeft=4;spacingRight=4;overflow=hidden;rotatable=0;points=[[0,0.5],[1,0.5]];portConstraint=eastwest;whiteSpace=wrap;html=1;" vertex="1" parent="N2q2jcpLJrjOb07b2iFs-1">
          <mxGeometry y="118" width="440" height="26" as="geometry" />
        </mxCell>
        <mxCell id="N2q2jcpLJrjOb07b2iFs-5" value="calculateMaintenanceCost(): double" style="text;strokeColor=none;fillColor=none;align=left;verticalAlign=top;spacingLeft=4;spacingRight=4;overflow=hidden;rotatable=0;points=[[0,0.5],[1,0.5]];portConstraint=eastwest;whiteSpace=wrap;html=1;" vertex="1" parent="N2q2jcpLJrjOb07b2iFs-1">
          <mxGeometry y="144" width="440" height="26" as="geometry" />
        </mxCell>
      </root>
    </mxGraphModel>
  </diagram>
  <diagram name="Property" id="wa5DwxjNyDhalCKVPrPP">
    <mxGraphModel dx="815" dy="485" grid="1" gridSize="10" guides="1" tooltips="1" connect="1" arrows="1" fold="1" page="1" pageScale="1" pageWidth="827" pageHeight="1169" background="#ffffff" math="0" shadow="0">
      <root>
        <mxCell id="0" />
        <mxCell id="1" parent="0" />
        <mxCell id="NBuTn_BIuKZggfuIWKDu-5" value="&lt;div&gt;&amp;lt;&amp;lt;abstract&amp;gt;&amp;gt;&lt;/div&gt;Property" style="swimlane;fontStyle=1;align=center;verticalAlign=top;childLayout=stackLayout;horizontal=1;startSize=40;horizontalStack=0;resizeParent=1;resizeParentMax=0;resizeLast=0;collapsible=1;marginBottom=0;whiteSpace=wrap;html=1;" parent="1" vertex="1">
          <mxGeometry x="240" y="160" width="360" height="294" as="geometry" />
        </mxCell>
        <mxCell id="NBuTn_BIuKZggfuIWKDu-6" value="- worth: double" style="text;strokeColor=none;fillColor=none;align=left;verticalAlign=top;spacingLeft=4;spacingRight=4;overflow=hidden;rotatable=0;points=[[0,0.5],[1,0.5]];portConstraint=eastwest;whiteSpace=wrap;html=1;" parent="NBuTn_BIuKZggfuIWKDu-5" vertex="1">
          <mxGeometry y="40" width="360" height="26" as="geometry" />
        </mxCell>
        <mxCell id="NBuTn_BIuKZggfuIWKDu-7" value="" style="line;strokeWidth=1;fillColor=none;align=left;verticalAlign=middle;spacingTop=-1;spacingLeft=3;spacingRight=3;rotatable=0;labelPosition=right;points=[];portConstraint=eastwest;strokeColor=inherit;" parent="NBuTn_BIuKZggfuIWKDu-5" vertex="1">
          <mxGeometry y="66" width="360" height="8" as="geometry" />
        </mxCell>
        <mxCell id="NBuTn_BIuKZggfuIWKDu-8" value="set:&lt;span style=&quot;white-space: pre;&quot;&gt;&#x9;&lt;/span&gt;+&amp;nbsp;setWorth(worth: double): void&lt;div&gt;&lt;br&gt;&lt;/div&gt;&lt;div&gt;get:&lt;span style=&quot;white-space: pre;&quot;&gt;&#x9;&lt;/span&gt;+ getWorth(): double&lt;/div&gt;&lt;div&gt;&lt;br&gt;&lt;/div&gt;&lt;div&gt;+ sell(): void&lt;/div&gt;&lt;div&gt;+ transfer(): void&lt;/div&gt;&lt;div&gt;&lt;br&gt;&lt;/div&gt;&lt;div&gt;+ equals(o: Object) : boolean&lt;/div&gt;&lt;div&gt;+ hashCode(): int&lt;/div&gt;&lt;div&gt;+ toString(): String&lt;/div&gt;&lt;div&gt;&lt;br&gt;&lt;/div&gt;&lt;div&gt;&lt;i&gt;+&amp;nbsp;calculateTax(): double&lt;/i&gt;&lt;/div&gt;&lt;div&gt;&lt;br&gt;&lt;/div&gt;&lt;div&gt;# Property(worth: double): Property&lt;/div&gt;" style="text;strokeColor=none;fillColor=none;align=left;verticalAlign=top;spacingLeft=4;spacingRight=4;overflow=hidden;rotatable=0;points=[[0,0.5],[1,0.5]];portConstraint=eastwest;whiteSpace=wrap;html=1;" parent="NBuTn_BIuKZggfuIWKDu-5" vertex="1">
          <mxGeometry y="74" width="360" height="220" as="geometry" />
        </mxCell>
      </root>
    </mxGraphModel>
  </diagram>
  <diagram id="2PcXBCJ3D4JY9jDkYHzC" name="Apartment">
    <mxGraphModel dx="983" dy="586" grid="1" gridSize="10" guides="1" tooltips="1" connect="1" arrows="1" fold="1" page="1" pageScale="1" pageWidth="827" pageHeight="1169" math="0" shadow="0">
      <root>
        <mxCell id="0" />
        <mxCell id="1" parent="0" />
        <mxCell id="tngslsXcdeeJgETgk8ic-1" value="Apartment" style="swimlane;fontStyle=1;align=center;verticalAlign=top;childLayout=stackLayout;horizontal=1;startSize=26;horizontalStack=0;resizeParent=1;resizeParentMax=0;resizeLast=0;collapsible=1;marginBottom=0;whiteSpace=wrap;html=1;" vertex="1" parent="1">
          <mxGeometry x="240" y="280" width="360" height="240" as="geometry" />
        </mxCell>
        <mxCell id="tngslsXcdeeJgETgk8ic-2" value="- square: int" style="text;strokeColor=none;fillColor=none;align=left;verticalAlign=top;spacingLeft=4;spacingRight=4;overflow=hidden;rotatable=0;points=[[0,0.5],[1,0.5]];portConstraint=eastwest;whiteSpace=wrap;html=1;" vertex="1" parent="tngslsXcdeeJgETgk8ic-1">
          <mxGeometry y="26" width="360" height="26" as="geometry" />
        </mxCell>
        <mxCell id="tngslsXcdeeJgETgk8ic-3" value="" style="line;strokeWidth=1;fillColor=none;align=left;verticalAlign=middle;spacingTop=-1;spacingLeft=3;spacingRight=3;rotatable=0;labelPosition=right;points=[];portConstraint=eastwest;strokeColor=inherit;" vertex="1" parent="tngslsXcdeeJgETgk8ic-1">
          <mxGeometry y="52" width="360" height="8" as="geometry" />
        </mxCell>
        <mxCell id="tngslsXcdeeJgETgk8ic-4" value="&lt;div&gt;&lt;span style=&quot;background-color: transparent; color: light-dark(rgb(0, 0, 0), rgb(255, 255, 255));&quot;&gt;set:&lt;/span&gt;&lt;span style=&quot;background-color: transparent; color: light-dark(rgb(0, 0, 0), rgb(255, 255, 255)); white-space: pre;&quot;&gt;&#x9;&lt;/span&gt;&lt;span style=&quot;background-color: transparent; color: light-dark(rgb(0, 0, 0), rgb(255, 255, 255));&quot;&gt;+&amp;nbsp;setSquare(square: int): void&lt;/span&gt;&lt;/div&gt;&lt;div&gt;&lt;br&gt;&lt;/div&gt;&lt;div&gt;get:&lt;span style=&quot;white-space: pre;&quot;&gt;&#x9;&lt;/span&gt;+ getSquare(): double&lt;/div&gt;&lt;div&gt;&lt;br&gt;&lt;/div&gt;&lt;div&gt;+ equals(o: Object) : boolean&lt;/div&gt;&lt;div&gt;+ hashCode(): int&lt;/div&gt;&lt;div&gt;+ toString(): String&lt;/div&gt;&lt;div&gt;&lt;br&gt;&lt;/div&gt;&lt;div&gt;+&amp;nbsp;calculateTax(): double&lt;/div&gt;&lt;div&gt;&lt;br&gt;&lt;/div&gt;&lt;div&gt;+ Apartment(worth: double, square: int):&amp;nbsp;&lt;span style=&quot;background-color: transparent; color: light-dark(rgb(0, 0, 0), rgb(255, 255, 255));&quot;&gt;Apartment&lt;/span&gt;&lt;/div&gt;" style="text;strokeColor=none;fillColor=none;align=left;verticalAlign=top;spacingLeft=4;spacingRight=4;overflow=hidden;rotatable=0;points=[[0,0.5],[1,0.5]];portConstraint=eastwest;whiteSpace=wrap;html=1;" vertex="1" parent="tngslsXcdeeJgETgk8ic-1">
          <mxGeometry y="60" width="360" height="180" as="geometry" />
        </mxCell>
      </root>
    </mxGraphModel>
  </diagram>
  <diagram id="MML_0T4TknuVYWK0OmkL" name="CountryHouse">
    <mxGraphModel dx="1501" dy="894" grid="1" gridSize="10" guides="1" tooltips="1" connect="1" arrows="1" fold="1" page="1" pageScale="1" pageWidth="827" pageHeight="1169" math="0" shadow="0">
      <root>
        <mxCell id="0" />
        <mxCell id="1" parent="0" />
        <mxCell id="4uCtz70Mz78W5FDCNoMP-1" value="CountryHouse" style="swimlane;fontStyle=1;align=center;verticalAlign=top;childLayout=stackLayout;horizontal=1;startSize=26;horizontalStack=0;resizeParent=1;resizeParentMax=0;resizeLast=0;collapsible=1;marginBottom=0;whiteSpace=wrap;html=1;" vertex="1" parent="1">
          <mxGeometry x="240" y="240" width="360" height="280" as="geometry" />
        </mxCell>
        <mxCell id="4uCtz70Mz78W5FDCNoMP-2" value="- ownershipSquare: int&lt;div&gt;- houseSquare: int&lt;/div&gt;" style="text;strokeColor=none;fillColor=none;align=left;verticalAlign=top;spacingLeft=4;spacingRight=4;overflow=hidden;rotatable=0;points=[[0,0.5],[1,0.5]];portConstraint=eastwest;whiteSpace=wrap;html=1;" vertex="1" parent="4uCtz70Mz78W5FDCNoMP-1">
          <mxGeometry y="26" width="360" height="34" as="geometry" />
        </mxCell>
        <mxCell id="4uCtz70Mz78W5FDCNoMP-3" value="" style="line;strokeWidth=1;fillColor=none;align=left;verticalAlign=middle;spacingTop=-1;spacingLeft=3;spacingRight=3;rotatable=0;labelPosition=right;points=[];portConstraint=eastwest;strokeColor=inherit;" vertex="1" parent="4uCtz70Mz78W5FDCNoMP-1">
          <mxGeometry y="60" width="360" height="8" as="geometry" />
        </mxCell>
        <mxCell id="4uCtz70Mz78W5FDCNoMP-4" value="set:&lt;span style=&quot;white-space: pre;&quot;&gt;&#x9;&lt;/span&gt;+&amp;nbsp;setOwnershipSquare(ownershipSquare: int): void&lt;br&gt;set:&lt;span style=&quot;white-space: pre;&quot;&gt;&#x9;&lt;/span&gt;+&amp;nbsp;setHouseSquare(houseSquare: int): void&lt;br&gt;&lt;div&gt;&lt;br&gt;&lt;/div&gt;&lt;div&gt;get:&lt;span style=&quot;white-space: pre;&quot;&gt;&#x9;&lt;/span&gt;+ getOwnershipSquare(): int&lt;br&gt;get:&lt;span style=&quot;white-space: pre;&quot;&gt;&#x9;&lt;/span&gt;+ getHouseSquare(): int&lt;/div&gt;&lt;div&gt;&lt;br&gt;&lt;/div&gt;&lt;div&gt;+ equals(o: Object) : boolean&lt;/div&gt;&lt;div&gt;+ hashCode(): int&lt;/div&gt;&lt;div&gt;+ toString(): String&lt;/div&gt;&lt;div&gt;&lt;br&gt;&lt;/div&gt;&lt;div&gt;+&amp;nbsp;calculateTax(): double&lt;/div&gt;&lt;div&gt;&lt;br&gt;&lt;/div&gt;&lt;div style=&quot;&quot;&gt;+ CountryHouse(worth: double, ownershipSquare: int,&amp;nbsp;&lt;span style=&quot;background-color: transparent; color: light-dark(rgb(0, 0, 0), rgb(255, 255, 255));&quot;&gt;houseSquare&lt;/span&gt;&lt;span style=&quot;background-color: transparent; color: light-dark(rgb(0, 0, 0), rgb(255, 255, 255));&quot;&gt;: int):&amp;nbsp;CountryHouse&lt;/span&gt;&lt;/div&gt;" style="text;strokeColor=none;fillColor=none;align=left;verticalAlign=top;spacingLeft=4;spacingRight=4;overflow=hidden;rotatable=0;points=[[0,0.5],[1,0.5]];portConstraint=eastwest;whiteSpace=wrap;html=1;" vertex="1" parent="4uCtz70Mz78W5FDCNoMP-1">
          <mxGeometry y="68" width="360" height="212" as="geometry" />
        </mxCell>
      </root>
    </mxGraphModel>
  </diagram>
  <diagram id="dmJMGbZIgpXNnd3IKGhf" name="Car">
    <mxGraphModel dx="713" dy="425" grid="1" gridSize="10" guides="1" tooltips="1" connect="1" arrows="1" fold="1" page="1" pageScale="1" pageWidth="827" pageHeight="1169" math="0" shadow="0">
      <root>
        <mxCell id="0" />
        <mxCell id="1" parent="0" />
        <mxCell id="lImpQYLB9tXkaHJ4s6v8-1" value="Car" style="swimlane;fontStyle=1;align=center;verticalAlign=top;childLayout=stackLayout;horizontal=1;startSize=26;horizontalStack=0;resizeParent=1;resizeParentMax=0;resizeLast=0;collapsible=1;marginBottom=0;whiteSpace=wrap;html=1;" vertex="1" parent="1">
          <mxGeometry x="240" y="280" width="360" height="280" as="geometry" />
        </mxCell>
        <mxCell id="lImpQYLB9tXkaHJ4s6v8-2" value="- volume: double&lt;div&gt;- year: int&lt;/div&gt;" style="text;strokeColor=none;fillColor=none;align=left;verticalAlign=top;spacingLeft=4;spacingRight=4;overflow=hidden;rotatable=0;points=[[0,0.5],[1,0.5]];portConstraint=eastwest;whiteSpace=wrap;html=1;" vertex="1" parent="lImpQYLB9tXkaHJ4s6v8-1">
          <mxGeometry y="26" width="360" height="34" as="geometry" />
        </mxCell>
        <mxCell id="lImpQYLB9tXkaHJ4s6v8-3" value="" style="line;strokeWidth=1;fillColor=none;align=left;verticalAlign=middle;spacingTop=-1;spacingLeft=3;spacingRight=3;rotatable=0;labelPosition=right;points=[];portConstraint=eastwest;strokeColor=inherit;" vertex="1" parent="lImpQYLB9tXkaHJ4s6v8-1">
          <mxGeometry y="60" width="360" height="8" as="geometry" />
        </mxCell>
        <mxCell id="lImpQYLB9tXkaHJ4s6v8-4" value="set:&lt;span style=&quot;white-space: pre;&quot;&gt;&#x9;&lt;/span&gt;+&amp;nbsp;setVolume(volume: double): void&lt;br&gt;set:&lt;span style=&quot;white-space: pre;&quot;&gt;&#x9;&lt;/span&gt;+&amp;nbsp;setYear(year: int): void&lt;br&gt;&lt;div&gt;&lt;br&gt;&lt;/div&gt;&lt;div&gt;get:&lt;span style=&quot;white-space: pre;&quot;&gt;&#x9;&lt;/span&gt;+ getVolume(): double&lt;br&gt;get:&lt;span style=&quot;white-space: pre;&quot;&gt;&#x9;&lt;/span&gt;+ getYear(): int&lt;/div&gt;&lt;div&gt;&lt;br&gt;&lt;/div&gt;&lt;div&gt;+ equals(o: Object) : boolean&lt;/div&gt;&lt;div&gt;+ hashCode(): int&lt;/div&gt;&lt;div&gt;+ toString(): String&lt;/div&gt;&lt;div&gt;&lt;br&gt;&lt;/div&gt;&lt;div&gt;+&amp;nbsp;calculateTax(): double&lt;/div&gt;&lt;div&gt;&lt;br&gt;&lt;/div&gt;&lt;div&gt;+ Car(worth: double, volume: double, year: int):&amp;nbsp;&lt;span style=&quot;background-color: transparent; color: light-dark(rgb(0, 0, 0), rgb(255, 255, 255));&quot;&gt;Car&lt;/span&gt;&lt;/div&gt;" style="text;strokeColor=none;fillColor=none;align=left;verticalAlign=top;spacingLeft=4;spacingRight=4;overflow=hidden;rotatable=0;points=[[0,0.5],[1,0.5]];portConstraint=eastwest;whiteSpace=wrap;html=1;" vertex="1" parent="lImpQYLB9tXkaHJ4s6v8-1">
          <mxGeometry y="68" width="360" height="212" as="geometry" />
        </mxCell>
      </root>
    </mxGraphModel>
  </diagram>
  <diagram id="FRvbGtxtwFznawsBDKb9" name="Before Interfaces">
    <mxGraphModel dx="1678" dy="999" grid="1" gridSize="10" guides="1" tooltips="1" connect="1" arrows="1" fold="1" page="1" pageScale="1" pageWidth="1169" pageHeight="1654" math="0" shadow="0">
      <root>
        <mxCell id="0" />
        <mxCell id="1" parent="0" />
        <mxCell id="xRrL83cO2sX1_kC5AzY_-1" value="&lt;div&gt;&amp;lt;&amp;lt;abstract&amp;gt;&amp;gt;&lt;/div&gt;Property" style="swimlane;fontStyle=1;align=center;verticalAlign=top;childLayout=stackLayout;horizontal=1;startSize=40;horizontalStack=0;resizeParent=1;resizeParentMax=0;resizeLast=0;collapsible=1;marginBottom=0;whiteSpace=wrap;html=1;" parent="1" vertex="1">
          <mxGeometry x="400" y="120" width="360" height="294" as="geometry" />
        </mxCell>
        <mxCell id="xRrL83cO2sX1_kC5AzY_-2" value="- worth: double" style="text;strokeColor=none;fillColor=none;align=left;verticalAlign=top;spacingLeft=4;spacingRight=4;overflow=hidden;rotatable=0;points=[[0,0.5],[1,0.5]];portConstraint=eastwest;whiteSpace=wrap;html=1;" parent="xRrL83cO2sX1_kC5AzY_-1" vertex="1">
          <mxGeometry y="40" width="360" height="26" as="geometry" />
        </mxCell>
        <mxCell id="xRrL83cO2sX1_kC5AzY_-3" value="" style="line;strokeWidth=1;fillColor=none;align=left;verticalAlign=middle;spacingTop=-1;spacingLeft=3;spacingRight=3;rotatable=0;labelPosition=right;points=[];portConstraint=eastwest;strokeColor=inherit;" parent="xRrL83cO2sX1_kC5AzY_-1" vertex="1">
          <mxGeometry y="66" width="360" height="8" as="geometry" />
        </mxCell>
        <mxCell id="xRrL83cO2sX1_kC5AzY_-4" value="set:&lt;span style=&quot;white-space: pre;&quot;&gt;&#x9;&lt;/span&gt;+&amp;nbsp;setWorth(worth: double): void&lt;div&gt;&lt;br&gt;&lt;/div&gt;&lt;div&gt;get:&lt;span style=&quot;white-space: pre;&quot;&gt;&#x9;&lt;/span&gt;+ getWorth(): double&lt;/div&gt;&lt;div&gt;&lt;br&gt;&lt;/div&gt;&lt;div&gt;+ sell(): void&lt;/div&gt;&lt;div&gt;+ transfer(): void&lt;/div&gt;&lt;div&gt;&lt;br&gt;&lt;/div&gt;&lt;div&gt;+ equals(o: Object) : boolean&lt;/div&gt;&lt;div&gt;+ hashCode(): int&lt;/div&gt;&lt;div&gt;+ toString(): String&lt;/div&gt;&lt;div&gt;&lt;br&gt;&lt;/div&gt;&lt;div&gt;&lt;i&gt;+&amp;nbsp;calculateTax(): double&lt;/i&gt;&lt;/div&gt;&lt;div&gt;&lt;br&gt;&lt;/div&gt;&lt;div&gt;# Property(worth: double): Property&lt;/div&gt;" style="text;strokeColor=none;fillColor=none;align=left;verticalAlign=top;spacingLeft=4;spacingRight=4;overflow=hidden;rotatable=0;points=[[0,0.5],[1,0.5]];portConstraint=eastwest;whiteSpace=wrap;html=1;" parent="xRrL83cO2sX1_kC5AzY_-1" vertex="1">
          <mxGeometry y="74" width="360" height="220" as="geometry" />
        </mxCell>
        <mxCell id="BsMnTaX-VR2yMeajAzsQ-6" style="edgeStyle=orthogonalEdgeStyle;rounded=0;orthogonalLoop=1;jettySize=auto;html=1;exitX=0.5;exitY=0;exitDx=0;exitDy=0;entryX=0.5;entryY=1;entryDx=0;entryDy=0;endArrow=block;endFill=0;endSize=12;startSize=12;" parent="1" source="TgOB8JrfFEFi6j78DF1f-1" target="xRrL83cO2sX1_kC5AzY_-1" edge="1">
          <mxGeometry relative="1" as="geometry" />
        </mxCell>
        <mxCell id="TgOB8JrfFEFi6j78DF1f-1" value="Apartment" style="swimlane;fontStyle=1;align=center;verticalAlign=top;childLayout=stackLayout;horizontal=1;startSize=26;horizontalStack=0;resizeParent=1;resizeParentMax=0;resizeLast=0;collapsible=1;marginBottom=0;whiteSpace=wrap;html=1;" parent="1" vertex="1">
          <mxGeometry y="520" width="360" height="280" as="geometry" />
        </mxCell>
        <mxCell id="TgOB8JrfFEFi6j78DF1f-2" value="- square: int" style="text;strokeColor=none;fillColor=none;align=left;verticalAlign=top;spacingLeft=4;spacingRight=4;overflow=hidden;rotatable=0;points=[[0,0.5],[1,0.5]];portConstraint=eastwest;whiteSpace=wrap;html=1;" parent="TgOB8JrfFEFi6j78DF1f-1" vertex="1">
          <mxGeometry y="26" width="360" height="26" as="geometry" />
        </mxCell>
        <mxCell id="TgOB8JrfFEFi6j78DF1f-3" value="" style="line;strokeWidth=1;fillColor=none;align=left;verticalAlign=middle;spacingTop=-1;spacingLeft=3;spacingRight=3;rotatable=0;labelPosition=right;points=[];portConstraint=eastwest;strokeColor=inherit;" parent="TgOB8JrfFEFi6j78DF1f-1" vertex="1">
          <mxGeometry y="52" width="360" height="8" as="geometry" />
        </mxCell>
        <mxCell id="TgOB8JrfFEFi6j78DF1f-4" value="&lt;div&gt;&lt;span style=&quot;background-color: transparent; color: light-dark(rgb(0, 0, 0), rgb(255, 255, 255));&quot;&gt;set:&lt;/span&gt;&lt;span style=&quot;background-color: transparent; color: light-dark(rgb(0, 0, 0), rgb(255, 255, 255)); white-space: pre;&quot;&gt;&#x9;&lt;/span&gt;&lt;span style=&quot;background-color: transparent; color: light-dark(rgb(0, 0, 0), rgb(255, 255, 255));&quot;&gt;+&amp;nbsp;setSquare(square: int): void&lt;/span&gt;&lt;/div&gt;&lt;div&gt;&lt;br&gt;&lt;/div&gt;&lt;div&gt;get:&lt;span style=&quot;white-space: pre;&quot;&gt;&#x9;&lt;/span&gt;+ getSquare(): double&lt;/div&gt;&lt;div&gt;&lt;br&gt;&lt;/div&gt;&lt;div&gt;+ equals(o: Object) : boolean&lt;/div&gt;&lt;div&gt;+ hashCode(): int&lt;/div&gt;&lt;div&gt;+ toString(): String&lt;/div&gt;&lt;div&gt;&lt;br&gt;&lt;/div&gt;&lt;div&gt;+&amp;nbsp;calculateTax(): double&lt;/div&gt;&lt;div&gt;&lt;br&gt;&lt;/div&gt;&lt;div&gt;+ Apartment(worth: double, square: int):&amp;nbsp;&lt;span style=&quot;background-color: transparent; color: light-dark(rgb(0, 0, 0), rgb(255, 255, 255));&quot;&gt;Apartment&lt;/span&gt;&lt;/div&gt;" style="text;strokeColor=none;fillColor=none;align=left;verticalAlign=top;spacingLeft=4;spacingRight=4;overflow=hidden;rotatable=0;points=[[0,0.5],[1,0.5]];portConstraint=eastwest;whiteSpace=wrap;html=1;" parent="TgOB8JrfFEFi6j78DF1f-1" vertex="1">
          <mxGeometry y="60" width="360" height="220" as="geometry" />
        </mxCell>
        <mxCell id="BsMnTaX-VR2yMeajAzsQ-7" style="edgeStyle=orthogonalEdgeStyle;rounded=0;orthogonalLoop=1;jettySize=auto;html=1;exitX=0.5;exitY=0;exitDx=0;exitDy=0;entryX=0.5;entryY=1;entryDx=0;entryDy=0;endArrow=block;endFill=0;endSize=12;startSize=12;" parent="1" source="08Ndo5oltJ201NhPrBwK-1" target="xRrL83cO2sX1_kC5AzY_-1" edge="1">
          <mxGeometry relative="1" as="geometry" />
        </mxCell>
        <mxCell id="08Ndo5oltJ201NhPrBwK-1" value="CountryHouse" style="swimlane;fontStyle=1;align=center;verticalAlign=top;childLayout=stackLayout;horizontal=1;startSize=26;horizontalStack=0;resizeParent=1;resizeParentMax=0;resizeLast=0;collapsible=1;marginBottom=0;whiteSpace=wrap;html=1;" parent="1" vertex="1">
          <mxGeometry x="400" y="520" width="360" height="280" as="geometry" />
        </mxCell>
        <mxCell id="08Ndo5oltJ201NhPrBwK-2" value="- ownershipSquare: int&lt;div&gt;- houseSquare: int&lt;/div&gt;" style="text;strokeColor=none;fillColor=none;align=left;verticalAlign=top;spacingLeft=4;spacingRight=4;overflow=hidden;rotatable=0;points=[[0,0.5],[1,0.5]];portConstraint=eastwest;whiteSpace=wrap;html=1;" parent="08Ndo5oltJ201NhPrBwK-1" vertex="1">
          <mxGeometry y="26" width="360" height="34" as="geometry" />
        </mxCell>
        <mxCell id="08Ndo5oltJ201NhPrBwK-3" value="" style="line;strokeWidth=1;fillColor=none;align=left;verticalAlign=middle;spacingTop=-1;spacingLeft=3;spacingRight=3;rotatable=0;labelPosition=right;points=[];portConstraint=eastwest;strokeColor=inherit;" parent="08Ndo5oltJ201NhPrBwK-1" vertex="1">
          <mxGeometry y="60" width="360" height="8" as="geometry" />
        </mxCell>
        <mxCell id="08Ndo5oltJ201NhPrBwK-4" value="set:&lt;span style=&quot;white-space: pre;&quot;&gt;&#x9;&lt;/span&gt;+&amp;nbsp;setOwnershipSquare(ownershipSquare: int): void&lt;br&gt;set:&lt;span style=&quot;white-space: pre;&quot;&gt;&#x9;&lt;/span&gt;+&amp;nbsp;setHouseSquare(houseSquare: int): void&lt;br&gt;&lt;div&gt;&lt;br&gt;&lt;/div&gt;&lt;div&gt;get:&lt;span style=&quot;white-space: pre;&quot;&gt;&#x9;&lt;/span&gt;+ getOwnershipSquare(): int&lt;br&gt;get:&lt;span style=&quot;white-space: pre;&quot;&gt;&#x9;&lt;/span&gt;+ getHouseSquare(): int&lt;/div&gt;&lt;div&gt;&lt;br&gt;&lt;/div&gt;&lt;div&gt;+ equals(o: Object) : boolean&lt;/div&gt;&lt;div&gt;+ hashCode(): int&lt;/div&gt;&lt;div&gt;+ toString(): String&lt;/div&gt;&lt;div&gt;&lt;br&gt;&lt;/div&gt;&lt;div&gt;+&amp;nbsp;calculateTax(): double&lt;/div&gt;&lt;div&gt;&lt;br&gt;&lt;/div&gt;&lt;div style=&quot;&quot;&gt;+ CountryHouse(worth: double, ownershipSquare: int,&amp;nbsp;&lt;span style=&quot;background-color: transparent; color: light-dark(rgb(0, 0, 0), rgb(255, 255, 255));&quot;&gt;houseSquare&lt;/span&gt;&lt;span style=&quot;background-color: transparent; color: light-dark(rgb(0, 0, 0), rgb(255, 255, 255));&quot;&gt;: int):&amp;nbsp;CountryHouse&lt;/span&gt;&lt;/div&gt;" style="text;strokeColor=none;fillColor=none;align=left;verticalAlign=top;spacingLeft=4;spacingRight=4;overflow=hidden;rotatable=0;points=[[0,0.5],[1,0.5]];portConstraint=eastwest;whiteSpace=wrap;html=1;" parent="08Ndo5oltJ201NhPrBwK-1" vertex="1">
          <mxGeometry y="68" width="360" height="212" as="geometry" />
        </mxCell>
        <mxCell id="BsMnTaX-VR2yMeajAzsQ-8" style="edgeStyle=orthogonalEdgeStyle;rounded=0;orthogonalLoop=1;jettySize=auto;html=1;exitX=0.5;exitY=0;exitDx=0;exitDy=0;entryX=0.5;entryY=1;entryDx=0;entryDy=0;endArrow=block;endFill=0;endSize=12;startSize=12;" parent="1" source="BsMnTaX-VR2yMeajAzsQ-1" target="xRrL83cO2sX1_kC5AzY_-1" edge="1">
          <mxGeometry relative="1" as="geometry" />
        </mxCell>
        <mxCell id="BsMnTaX-VR2yMeajAzsQ-1" value="Car" style="swimlane;fontStyle=1;align=center;verticalAlign=top;childLayout=stackLayout;horizontal=1;startSize=26;horizontalStack=0;resizeParent=1;resizeParentMax=0;resizeLast=0;collapsible=1;marginBottom=0;whiteSpace=wrap;html=1;" parent="1" vertex="1">
          <mxGeometry x="800" y="520" width="360" height="280" as="geometry" />
        </mxCell>
        <mxCell id="BsMnTaX-VR2yMeajAzsQ-2" value="- volume: double&lt;div&gt;- year: int&lt;/div&gt;" style="text;strokeColor=none;fillColor=none;align=left;verticalAlign=top;spacingLeft=4;spacingRight=4;overflow=hidden;rotatable=0;points=[[0,0.5],[1,0.5]];portConstraint=eastwest;whiteSpace=wrap;html=1;" parent="BsMnTaX-VR2yMeajAzsQ-1" vertex="1">
          <mxGeometry y="26" width="360" height="34" as="geometry" />
        </mxCell>
        <mxCell id="BsMnTaX-VR2yMeajAzsQ-3" value="" style="line;strokeWidth=1;fillColor=none;align=left;verticalAlign=middle;spacingTop=-1;spacingLeft=3;spacingRight=3;rotatable=0;labelPosition=right;points=[];portConstraint=eastwest;strokeColor=inherit;" parent="BsMnTaX-VR2yMeajAzsQ-1" vertex="1">
          <mxGeometry y="60" width="360" height="8" as="geometry" />
        </mxCell>
        <mxCell id="BsMnTaX-VR2yMeajAzsQ-4" value="set:&lt;span style=&quot;white-space: pre;&quot;&gt;&#x9;&lt;/span&gt;+&amp;nbsp;setVolume(volume: double): void&lt;br&gt;set:&lt;span style=&quot;white-space: pre;&quot;&gt;&#x9;&lt;/span&gt;+&amp;nbsp;setYear(year: int): void&lt;br&gt;&lt;div&gt;&lt;br&gt;&lt;/div&gt;&lt;div&gt;get:&lt;span style=&quot;white-space: pre;&quot;&gt;&#x9;&lt;/span&gt;+ getVolume(): double&lt;br&gt;get:&lt;span style=&quot;white-space: pre;&quot;&gt;&#x9;&lt;/span&gt;+ getYear(): int&lt;/div&gt;&lt;div&gt;&lt;br&gt;&lt;/div&gt;&lt;div&gt;+ equals(o: Object) : boolean&lt;/div&gt;&lt;div&gt;+ hashCode(): int&lt;/div&gt;&lt;div&gt;+ toString(): String&lt;/div&gt;&lt;div&gt;&lt;br&gt;&lt;/div&gt;&lt;div&gt;+&amp;nbsp;calculateTax(): double&lt;/div&gt;&lt;div&gt;&lt;br&gt;&lt;/div&gt;&lt;div&gt;+ Car(worth: double, volume: double, year: int):&amp;nbsp;&lt;span style=&quot;background-color: transparent; color: light-dark(rgb(0, 0, 0), rgb(255, 255, 255));&quot;&gt;Car&lt;/span&gt;&lt;/div&gt;" style="text;strokeColor=none;fillColor=none;align=left;verticalAlign=top;spacingLeft=4;spacingRight=4;overflow=hidden;rotatable=0;points=[[0,0.5],[1,0.5]];portConstraint=eastwest;whiteSpace=wrap;html=1;" parent="BsMnTaX-VR2yMeajAzsQ-1" vertex="1">
          <mxGeometry y="68" width="360" height="212" as="geometry" />
        </mxCell>
      </root>
    </mxGraphModel>
  </diagram>
  <diagram name="After Interfaces" id="QRLNBiPEzdXHEpIxbuiq">
    <mxGraphModel dx="2852" dy="1698" grid="1" gridSize="10" guides="1" tooltips="1" connect="1" arrows="1" fold="1" page="1" pageScale="1" pageWidth="1654" pageHeight="2336" math="0" shadow="0">
      <root>
        <mxCell id="SMwrROu7gEjUtUbAaYOO-0" />
        <mxCell id="SMwrROu7gEjUtUbAaYOO-1" parent="SMwrROu7gEjUtUbAaYOO-0" />
        <mxCell id="SMwrROu7gEjUtUbAaYOO-2" value="&lt;div&gt;&amp;lt;&amp;lt;abstract&amp;gt;&amp;gt;&lt;/div&gt;Property" style="swimlane;fontStyle=1;align=center;verticalAlign=top;childLayout=stackLayout;horizontal=1;startSize=40;horizontalStack=0;resizeParent=1;resizeParentMax=0;resizeLast=0;collapsible=1;marginBottom=0;whiteSpace=wrap;html=1;" vertex="1" parent="SMwrROu7gEjUtUbAaYOO-1">
          <mxGeometry x="560" y="120" width="440" height="294" as="geometry" />
        </mxCell>
        <mxCell id="SMwrROu7gEjUtUbAaYOO-3" value="- worth: double" style="text;strokeColor=none;fillColor=none;align=left;verticalAlign=top;spacingLeft=4;spacingRight=4;overflow=hidden;rotatable=0;points=[[0,0.5],[1,0.5]];portConstraint=eastwest;whiteSpace=wrap;html=1;" vertex="1" parent="SMwrROu7gEjUtUbAaYOO-2">
          <mxGeometry y="40" width="440" height="26" as="geometry" />
        </mxCell>
        <mxCell id="SMwrROu7gEjUtUbAaYOO-4" value="" style="line;strokeWidth=1;fillColor=none;align=left;verticalAlign=middle;spacingTop=-1;spacingLeft=3;spacingRight=3;rotatable=0;labelPosition=right;points=[];portConstraint=eastwest;strokeColor=inherit;" vertex="1" parent="SMwrROu7gEjUtUbAaYOO-2">
          <mxGeometry y="66" width="440" height="8" as="geometry" />
        </mxCell>
        <mxCell id="SMwrROu7gEjUtUbAaYOO-5" value="set:&lt;span style=&quot;white-space: pre;&quot;&gt;&#x9;&lt;/span&gt;+&amp;nbsp;setWorth(worth: double): void&lt;div&gt;&lt;br&gt;&lt;/div&gt;&lt;div&gt;get:&lt;span style=&quot;white-space: pre;&quot;&gt;&#x9;&lt;/span&gt;+ getWorth(): double&lt;/div&gt;&lt;div&gt;&lt;br&gt;&lt;/div&gt;&lt;div&gt;+ sell(): void&lt;/div&gt;&lt;div&gt;+ transfer(): void&lt;/div&gt;&lt;div&gt;&lt;br&gt;&lt;/div&gt;&lt;div&gt;+ equals(o: Object) : boolean&lt;/div&gt;&lt;div&gt;+ hashCode(): int&lt;/div&gt;&lt;div&gt;+ toString(): String&lt;/div&gt;&lt;div&gt;&lt;br&gt;&lt;/div&gt;&lt;div&gt;&lt;i&gt;+&amp;nbsp;calculateTax(): double&lt;/i&gt;&lt;/div&gt;&lt;div&gt;&lt;br&gt;&lt;/div&gt;&lt;div&gt;# Property(worth: double): Property&lt;/div&gt;" style="text;strokeColor=none;fillColor=none;align=left;verticalAlign=top;spacingLeft=4;spacingRight=4;overflow=hidden;rotatable=0;points=[[0,0.5],[1,0.5]];portConstraint=eastwest;whiteSpace=wrap;html=1;" vertex="1" parent="SMwrROu7gEjUtUbAaYOO-2">
          <mxGeometry y="74" width="440" height="220" as="geometry" />
        </mxCell>
        <mxCell id="SMwrROu7gEjUtUbAaYOO-6" style="edgeStyle=orthogonalEdgeStyle;rounded=0;orthogonalLoop=1;jettySize=auto;html=1;exitX=0.5;exitY=0;exitDx=0;exitDy=0;entryX=0.5;entryY=1;entryDx=0;entryDy=0;endArrow=block;endFill=0;endSize=12;startSize=12;" edge="1" parent="SMwrROu7gEjUtUbAaYOO-1" source="SMwrROu7gEjUtUbAaYOO-7" target="SMwrROu7gEjUtUbAaYOO-2">
          <mxGeometry relative="1" as="geometry" />
        </mxCell>
        <mxCell id="SMwrROu7gEjUtUbAaYOO-7" value="Apartment" style="swimlane;fontStyle=1;align=center;verticalAlign=top;childLayout=stackLayout;horizontal=1;startSize=26;horizontalStack=0;resizeParent=1;resizeParentMax=0;resizeLast=0;collapsible=1;marginBottom=0;whiteSpace=wrap;html=1;" vertex="1" parent="SMwrROu7gEjUtUbAaYOO-1">
          <mxGeometry x="80" y="520" width="440" height="400" as="geometry" />
        </mxCell>
        <mxCell id="SMwrROu7gEjUtUbAaYOO-8" value="- square: int&lt;div&gt;- address: String&lt;/div&gt;&lt;div&gt;- cadastralNumber: String&lt;/div&gt;" style="text;strokeColor=none;fillColor=none;align=left;verticalAlign=top;spacingLeft=4;spacingRight=4;overflow=hidden;rotatable=0;points=[[0,0.5],[1,0.5]];portConstraint=eastwest;whiteSpace=wrap;html=1;" vertex="1" parent="SMwrROu7gEjUtUbAaYOO-7">
          <mxGeometry y="26" width="440" height="74" as="geometry" />
        </mxCell>
        <mxCell id="SMwrROu7gEjUtUbAaYOO-9" value="" style="line;strokeWidth=1;fillColor=none;align=left;verticalAlign=middle;spacingTop=-1;spacingLeft=3;spacingRight=3;rotatable=0;labelPosition=right;points=[];portConstraint=eastwest;strokeColor=inherit;" vertex="1" parent="SMwrROu7gEjUtUbAaYOO-7">
          <mxGeometry y="100" width="440" height="8" as="geometry" />
        </mxCell>
        <mxCell id="SMwrROu7gEjUtUbAaYOO-10" value="&lt;div&gt;&lt;span style=&quot;background-color: transparent; color: light-dark(rgb(0, 0, 0), rgb(255, 255, 255));&quot;&gt;set:&lt;/span&gt;&lt;span style=&quot;background-color: transparent; color: light-dark(rgb(0, 0, 0), rgb(255, 255, 255)); white-space: pre;&quot;&gt;&#x9;&lt;/span&gt;&lt;span style=&quot;background-color: transparent; color: light-dark(rgb(0, 0, 0), rgb(255, 255, 255));&quot;&gt;+&amp;nbsp;setSquare(square: int): void&lt;/span&gt;&lt;/div&gt;&lt;div&gt;&lt;span style=&quot;color: light-dark(rgb(0, 0, 0), rgb(255, 255, 255)); background-color: transparent;&quot;&gt;set:&lt;/span&gt;&lt;span style=&quot;color: light-dark(rgb(0, 0, 0), rgb(255, 255, 255)); background-color: transparent; white-space: pre;&quot;&gt;&#x9;&lt;/span&gt;+&amp;nbsp;&lt;span style=&quot;background-color: transparent; color: light-dark(rgb(0, 0, 0), rgb(255, 255, 255));&quot;&gt;setAddress(address: String) : void&lt;/span&gt;&lt;/div&gt;&lt;div&gt;&lt;div&gt;&lt;span style=&quot;color: light-dark(rgb(0, 0, 0), rgb(255, 255, 255)); background-color: transparent;&quot;&gt;set:&lt;/span&gt;&lt;span style=&quot;color: light-dark(rgb(0, 0, 0), rgb(255, 255, 255)); background-color: transparent; white-space: pre;&quot;&gt;&#x9;&lt;/span&gt;+&amp;nbsp;&lt;span style=&quot;background-color: transparent; color: light-dark(rgb(0, 0, 0), rgb(255, 255, 255));&quot;&gt;setCadastralNumber(cadastralNumber: String): void&lt;/span&gt;&lt;/div&gt;&lt;/div&gt;&lt;div&gt;&lt;br&gt;&lt;/div&gt;&lt;div&gt;get:&lt;span style=&quot;white-space: pre;&quot;&gt;&#x9;&lt;/span&gt;+ getSquare(): double&lt;/div&gt;&lt;div&gt;get:&lt;span style=&quot;white-space: pre;&quot;&gt;&#x9;&lt;/span&gt;+&amp;nbsp;getAddress(): String&lt;/div&gt;&lt;div&gt;get:&lt;span style=&quot;white-space: pre;&quot;&gt;&#x9;&lt;/span&gt;+&amp;nbsp;&lt;span style=&quot;background-color: transparent; color: light-dark(rgb(0, 0, 0), rgb(255, 255, 255));&quot;&gt;getCadastralNumber(): String&lt;/span&gt;&lt;/div&gt;&lt;div&gt;&lt;br&gt;&lt;/div&gt;&lt;div&gt;+ equals(o: Object) : boolean&lt;/div&gt;&lt;div&gt;+ hashCode(): int&lt;/div&gt;&lt;div&gt;+ toString(): String&lt;/div&gt;&lt;div&gt;&lt;br&gt;&lt;/div&gt;&lt;div&gt;+&amp;nbsp;calculateTax(): double&lt;/div&gt;&lt;div&gt;+&amp;nbsp;&lt;span style=&quot;background-color: transparent; color: light-dark(rgb(0, 0, 0), rgb(255, 255, 255));&quot;&gt;calculateUtilityCost&lt;/span&gt;&lt;span style=&quot;background-color: transparent; color: light-dark(rgb(0, 0, 0), rgb(255, 255, 255));&quot;&gt;(): double&lt;/span&gt;&lt;/div&gt;&lt;div&gt;&lt;br&gt;&lt;/div&gt;&lt;div&gt;+ Apartment(worth: double, square: int, address: String, cadastralNumber: String):&amp;nbsp;&lt;span style=&quot;background-color: transparent; color: light-dark(rgb(0, 0, 0), rgb(255, 255, 255));&quot;&gt;Apartment&lt;/span&gt;&lt;/div&gt;" style="text;strokeColor=none;fillColor=none;align=left;verticalAlign=top;spacingLeft=4;spacingRight=4;overflow=hidden;rotatable=0;points=[[0,0.5],[1,0.5]];portConstraint=eastwest;whiteSpace=wrap;html=1;" vertex="1" parent="SMwrROu7gEjUtUbAaYOO-7">
          <mxGeometry y="108" width="440" height="292" as="geometry" />
        </mxCell>
        <mxCell id="SMwrROu7gEjUtUbAaYOO-11" style="edgeStyle=orthogonalEdgeStyle;rounded=0;orthogonalLoop=1;jettySize=auto;html=1;exitX=0.5;exitY=0;exitDx=0;exitDy=0;entryX=0.5;entryY=1;entryDx=0;entryDy=0;endArrow=block;endFill=0;endSize=12;startSize=12;" edge="1" parent="SMwrROu7gEjUtUbAaYOO-1" source="SMwrROu7gEjUtUbAaYOO-12" target="SMwrROu7gEjUtUbAaYOO-2">
          <mxGeometry relative="1" as="geometry" />
        </mxCell>
        <mxCell id="SMwrROu7gEjUtUbAaYOO-12" value="CountryHouse" style="swimlane;fontStyle=1;align=center;verticalAlign=top;childLayout=stackLayout;horizontal=1;startSize=26;horizontalStack=0;resizeParent=1;resizeParentMax=0;resizeLast=0;collapsible=1;marginBottom=0;whiteSpace=wrap;html=1;" vertex="1" parent="SMwrROu7gEjUtUbAaYOO-1">
          <mxGeometry x="560" y="520" width="440" height="400" as="geometry" />
        </mxCell>
        <mxCell id="SMwrROu7gEjUtUbAaYOO-13" value="- ownershipSquare: int&lt;div&gt;- houseSquare: int&lt;/div&gt;&lt;div&gt;&lt;div&gt;- address: String&lt;/div&gt;&lt;div&gt;- cadastralNumber: String&lt;/div&gt;&lt;/div&gt;" style="text;strokeColor=none;fillColor=none;align=left;verticalAlign=top;spacingLeft=4;spacingRight=4;overflow=hidden;rotatable=0;points=[[0,0.5],[1,0.5]];portConstraint=eastwest;whiteSpace=wrap;html=1;" vertex="1" parent="SMwrROu7gEjUtUbAaYOO-12">
          <mxGeometry y="26" width="440" height="74" as="geometry" />
        </mxCell>
        <mxCell id="SMwrROu7gEjUtUbAaYOO-14" value="" style="line;strokeWidth=1;fillColor=none;align=left;verticalAlign=middle;spacingTop=-1;spacingLeft=3;spacingRight=3;rotatable=0;labelPosition=right;points=[];portConstraint=eastwest;strokeColor=inherit;" vertex="1" parent="SMwrROu7gEjUtUbAaYOO-12">
          <mxGeometry y="100" width="440" height="8" as="geometry" />
        </mxCell>
        <mxCell id="SMwrROu7gEjUtUbAaYOO-15" value="set:&lt;span style=&quot;white-space: pre;&quot;&gt;&#x9;&lt;/span&gt;+&amp;nbsp;setOwnershipSquare(ownershipSquare: int): void&lt;br&gt;set:&lt;span style=&quot;white-space: pre;&quot;&gt;&#x9;&lt;/span&gt;+&amp;nbsp;setHouseSquare(houseSquare: int): void&lt;div&gt;&lt;div&gt;&lt;span style=&quot;color: light-dark(rgb(0, 0, 0), rgb(255, 255, 255)); background-color: transparent;&quot;&gt;set:&lt;/span&gt;&lt;span style=&quot;color: light-dark(rgb(0, 0, 0), rgb(255, 255, 255)); background-color: transparent; white-space: pre;&quot;&gt;&#x9;&lt;/span&gt;+&amp;nbsp;&lt;span style=&quot;background-color: transparent; color: light-dark(rgb(0, 0, 0), rgb(255, 255, 255));&quot;&gt;setAddress(address: String) : void&lt;/span&gt;&lt;/div&gt;&lt;div&gt;&lt;span style=&quot;color: light-dark(rgb(0, 0, 0), rgb(255, 255, 255)); background-color: transparent;&quot;&gt;set:&lt;/span&gt;&lt;span style=&quot;color: light-dark(rgb(0, 0, 0), rgb(255, 255, 255)); background-color: transparent; white-space: pre;&quot;&gt;&#x9;&lt;/span&gt;+&amp;nbsp;&lt;span style=&quot;background-color: transparent; color: light-dark(rgb(0, 0, 0), rgb(255, 255, 255));&quot;&gt;setCadastralNumber(cadastralNumber: String): void&lt;/span&gt;&lt;/div&gt;&lt;div&gt;&lt;br&gt;&lt;/div&gt;&lt;div&gt;get:&lt;span style=&quot;white-space: pre;&quot;&gt;&#x9;&lt;/span&gt;+ getOwnershipSquare(): int&lt;br&gt;get:&lt;span style=&quot;white-space: pre;&quot;&gt;&#x9;&lt;/span&gt;+ getHouseSquare(): int&lt;/div&gt;&lt;div&gt;&lt;div&gt;get:&lt;span style=&quot;white-space: pre;&quot;&gt;&#x9;&lt;/span&gt;+&amp;nbsp;getAddress(): String&lt;/div&gt;&lt;div&gt;get:&lt;span style=&quot;white-space: pre;&quot;&gt;&#x9;&lt;/span&gt;+&amp;nbsp;&lt;span style=&quot;background-color: transparent; color: light-dark(rgb(0, 0, 0), rgb(255, 255, 255));&quot;&gt;getCadastralNumber(): String&lt;/span&gt;&lt;/div&gt;&lt;/div&gt;&lt;div&gt;&lt;br&gt;&lt;/div&gt;&lt;div&gt;+ equals(o: Object) : boolean&lt;/div&gt;&lt;div&gt;+ hashCode(): int&lt;/div&gt;&lt;div&gt;+ toString(): String&lt;/div&gt;&lt;div&gt;&lt;br&gt;&lt;/div&gt;&lt;div&gt;+&amp;nbsp;calculateTax(): double&lt;/div&gt;&lt;div&gt;calculateUtilityCost&lt;span style=&quot;color: light-dark(rgb(0, 0, 0), rgb(255, 255, 255)); background-color: transparent;&quot;&gt;(): double&lt;/span&gt;&lt;/div&gt;&lt;div&gt;&lt;br&gt;&lt;/div&gt;&lt;div style=&quot;&quot;&gt;+ CountryHouse(worth: double, ownershipSquare: int,&amp;nbsp;&lt;span style=&quot;background-color: transparent; color: light-dark(rgb(0, 0, 0), rgb(255, 255, 255));&quot;&gt;houseSquare&lt;/span&gt;&lt;span style=&quot;background-color: transparent; color: light-dark(rgb(0, 0, 0), rgb(255, 255, 255));&quot;&gt;: int,&amp;nbsp;&lt;/span&gt;&lt;span style=&quot;background-color: transparent; color: light-dark(rgb(0, 0, 0), rgb(255, 255, 255));&quot;&gt;address: String, cadastralNumber: String&lt;/span&gt;&lt;span style=&quot;background-color: transparent; color: light-dark(rgb(0, 0, 0), rgb(255, 255, 255));&quot;&gt;):&amp;nbsp;CountryHouse&lt;/span&gt;&lt;/div&gt;&lt;/div&gt;" style="text;strokeColor=none;fillColor=none;align=left;verticalAlign=top;spacingLeft=4;spacingRight=4;overflow=hidden;rotatable=0;points=[[0,0.5],[1,0.5]];portConstraint=eastwest;whiteSpace=wrap;html=1;" vertex="1" parent="SMwrROu7gEjUtUbAaYOO-12">
          <mxGeometry y="108" width="440" height="292" as="geometry" />
        </mxCell>
        <mxCell id="SMwrROu7gEjUtUbAaYOO-16" style="edgeStyle=orthogonalEdgeStyle;rounded=0;orthogonalLoop=1;jettySize=auto;html=1;exitX=0.5;exitY=0;exitDx=0;exitDy=0;entryX=0.5;entryY=1;entryDx=0;entryDy=0;endArrow=block;endFill=0;endSize=12;startSize=12;" edge="1" parent="SMwrROu7gEjUtUbAaYOO-1" source="SMwrROu7gEjUtUbAaYOO-17" target="SMwrROu7gEjUtUbAaYOO-2">
          <mxGeometry relative="1" as="geometry" />
        </mxCell>
        <mxCell id="SMwrROu7gEjUtUbAaYOO-17" value="Car" style="swimlane;fontStyle=1;align=center;verticalAlign=top;childLayout=stackLayout;horizontal=1;startSize=26;horizontalStack=0;resizeParent=1;resizeParentMax=0;resizeLast=0;collapsible=1;marginBottom=0;whiteSpace=wrap;html=1;" vertex="1" parent="SMwrROu7gEjUtUbAaYOO-1">
          <mxGeometry x="1040" y="520" width="440" height="400" as="geometry" />
        </mxCell>
        <mxCell id="SMwrROu7gEjUtUbAaYOO-18" value="- volume: double&lt;div&gt;- year: int&lt;/div&gt;&lt;div&gt;- registrationNumber: String&lt;/div&gt;" style="text;strokeColor=none;fillColor=none;align=left;verticalAlign=top;spacingLeft=4;spacingRight=4;overflow=hidden;rotatable=0;points=[[0,0.5],[1,0.5]];portConstraint=eastwest;whiteSpace=wrap;html=1;" vertex="1" parent="SMwrROu7gEjUtUbAaYOO-17">
          <mxGeometry y="26" width="440" height="74" as="geometry" />
        </mxCell>
        <mxCell id="SMwrROu7gEjUtUbAaYOO-19" value="" style="line;strokeWidth=1;fillColor=none;align=left;verticalAlign=middle;spacingTop=-1;spacingLeft=3;spacingRight=3;rotatable=0;labelPosition=right;points=[];portConstraint=eastwest;strokeColor=inherit;" vertex="1" parent="SMwrROu7gEjUtUbAaYOO-17">
          <mxGeometry y="100" width="440" height="8" as="geometry" />
        </mxCell>
        <mxCell id="SMwrROu7gEjUtUbAaYOO-20" value="set:&lt;span style=&quot;white-space: pre;&quot;&gt;&#x9;&lt;/span&gt;+&amp;nbsp;setVolume(volume: double): void&lt;br&gt;set:&lt;span style=&quot;white-space: pre;&quot;&gt;&#x9;&lt;/span&gt;+&amp;nbsp;setYear(year: int): void&lt;div&gt;set:&lt;span style=&quot;white-space: pre;&quot;&gt;&#x9;&lt;/span&gt;+ setRegistrationNumber(registrationNumber: String): void&lt;br&gt;&lt;div&gt;&lt;br&gt;&lt;/div&gt;&lt;div&gt;get:&lt;span style=&quot;white-space: pre;&quot;&gt;&#x9;&lt;/span&gt;+ getVolume(): double&lt;br&gt;get:&lt;span style=&quot;white-space: pre;&quot;&gt;&#x9;&lt;/span&gt;+ getYear(): int&lt;/div&gt;&lt;div&gt;get:&lt;span style=&quot;white-space: pre;&quot;&gt;&#x9;&lt;/span&gt;+&amp;nbsp;&lt;span style=&quot;background-color: transparent; color: light-dark(rgb(0, 0, 0), rgb(255, 255, 255));&quot;&gt;getRegistrationNumber(): String&lt;/span&gt;&lt;/div&gt;&lt;div&gt;&lt;br&gt;&lt;/div&gt;&lt;div&gt;+ equals(o: Object) : boolean&lt;/div&gt;&lt;div&gt;+ hashCode(): int&lt;/div&gt;&lt;div&gt;+ toString(): String&lt;/div&gt;&lt;div&gt;&lt;br&gt;&lt;/div&gt;&lt;div&gt;+&amp;nbsp;calculateTax(): double&lt;/div&gt;&lt;div&gt;+ calculateMaintenanceCost(): double&lt;/div&gt;&lt;div&gt;&lt;br&gt;&lt;/div&gt;&lt;div&gt;+ Car(worth: double, volume: double, year: int, registrationNumber: String):&amp;nbsp;&lt;span style=&quot;background-color: transparent; color: light-dark(rgb(0, 0, 0), rgb(255, 255, 255));&quot;&gt;Car&lt;/span&gt;&lt;/div&gt;&lt;/div&gt;" style="text;strokeColor=none;fillColor=none;align=left;verticalAlign=top;spacingLeft=4;spacingRight=4;overflow=hidden;rotatable=0;points=[[0,0.5],[1,0.5]];portConstraint=eastwest;whiteSpace=wrap;html=1;" vertex="1" parent="SMwrROu7gEjUtUbAaYOO-17">
          <mxGeometry y="108" width="440" height="292" as="geometry" />
        </mxCell>
        <mxCell id="Y5pGvl3edq_c8lEWE1MQ-8" style="edgeStyle=orthogonalEdgeStyle;rounded=0;orthogonalLoop=1;jettySize=auto;html=1;exitX=0.5;exitY=0;exitDx=0;exitDy=0;entryX=0.5;entryY=1;entryDx=0;entryDy=0;dashed=1;endArrow=none;startFill=0;startArrow=block;endSize=12;startSize=12;" edge="1" parent="SMwrROu7gEjUtUbAaYOO-1" source="vDD1FLVmWHXRadAImMUz-0" target="SMwrROu7gEjUtUbAaYOO-7">
          <mxGeometry relative="1" as="geometry" />
        </mxCell>
        <mxCell id="Y5pGvl3edq_c8lEWE1MQ-9" style="edgeStyle=orthogonalEdgeStyle;rounded=0;orthogonalLoop=1;jettySize=auto;html=1;exitX=0.5;exitY=0;exitDx=0;exitDy=0;entryX=0.5;entryY=1;entryDx=0;entryDy=0;dashed=1;endArrow=none;startFill=0;startArrow=block;endSize=12;startSize=12;" edge="1" parent="SMwrROu7gEjUtUbAaYOO-1" source="vDD1FLVmWHXRadAImMUz-0" target="SMwrROu7gEjUtUbAaYOO-12">
          <mxGeometry relative="1" as="geometry" />
        </mxCell>
        <mxCell id="vDD1FLVmWHXRadAImMUz-0" value="&lt;b&gt;&amp;lt;&amp;lt;interface&amp;gt;&amp;gt;&lt;/b&gt;&lt;div&gt;&lt;b&gt;RealEstateOwnership&lt;/b&gt;&lt;/div&gt;" style="swimlane;fontStyle=0;childLayout=stackLayout;horizontal=1;startSize=40;fillColor=none;horizontalStack=0;resizeParent=1;resizeParentMax=0;resizeLast=0;collapsible=1;marginBottom=0;whiteSpace=wrap;html=1;" vertex="1" parent="SMwrROu7gEjUtUbAaYOO-1">
          <mxGeometry x="320" y="1040" width="440" height="170" as="geometry" />
        </mxCell>
        <mxCell id="vDD1FLVmWHXRadAImMUz-1" value="getCadastralNumber(): String" style="text;strokeColor=none;fillColor=none;align=left;verticalAlign=top;spacingLeft=4;spacingRight=4;overflow=hidden;rotatable=0;points=[[0,0.5],[1,0.5]];portConstraint=eastwest;whiteSpace=wrap;html=1;" vertex="1" parent="vDD1FLVmWHXRadAImMUz-0">
          <mxGeometry y="40" width="440" height="26" as="geometry" />
        </mxCell>
        <mxCell id="vDD1FLVmWHXRadAImMUz-2" value="setCadastralNumber(cadastralNumber: String): void" style="text;strokeColor=none;fillColor=none;align=left;verticalAlign=top;spacingLeft=4;spacingRight=4;overflow=hidden;rotatable=0;points=[[0,0.5],[1,0.5]];portConstraint=eastwest;whiteSpace=wrap;html=1;" vertex="1" parent="vDD1FLVmWHXRadAImMUz-0">
          <mxGeometry y="66" width="440" height="26" as="geometry" />
        </mxCell>
        <mxCell id="vDD1FLVmWHXRadAImMUz-3" value="getAddress(): String" style="text;strokeColor=none;fillColor=none;align=left;verticalAlign=top;spacingLeft=4;spacingRight=4;overflow=hidden;rotatable=0;points=[[0,0.5],[1,0.5]];portConstraint=eastwest;whiteSpace=wrap;html=1;" vertex="1" parent="vDD1FLVmWHXRadAImMUz-0">
          <mxGeometry y="92" width="440" height="26" as="geometry" />
        </mxCell>
        <mxCell id="vDD1FLVmWHXRadAImMUz-4" value="setAddress(address: String) : void" style="text;strokeColor=none;fillColor=none;align=left;verticalAlign=top;spacingLeft=4;spacingRight=4;overflow=hidden;rotatable=0;points=[[0,0.5],[1,0.5]];portConstraint=eastwest;whiteSpace=wrap;html=1;" vertex="1" parent="vDD1FLVmWHXRadAImMUz-0">
          <mxGeometry y="118" width="440" height="26" as="geometry" />
        </mxCell>
        <mxCell id="vDD1FLVmWHXRadAImMUz-5" value="calculateUtilityCost&lt;span style=&quot;background-color: transparent; color: light-dark(rgb(0, 0, 0), rgb(255, 255, 255));&quot;&gt;(): double&lt;/span&gt;" style="text;strokeColor=none;fillColor=none;align=left;verticalAlign=top;spacingLeft=4;spacingRight=4;overflow=hidden;rotatable=0;points=[[0,0.5],[1,0.5]];portConstraint=eastwest;whiteSpace=wrap;html=1;" vertex="1" parent="vDD1FLVmWHXRadAImMUz-0">
          <mxGeometry y="144" width="440" height="26" as="geometry" />
        </mxCell>
        <mxCell id="Y5pGvl3edq_c8lEWE1MQ-7" style="edgeStyle=orthogonalEdgeStyle;rounded=0;orthogonalLoop=1;jettySize=auto;html=1;exitX=0.5;exitY=0;exitDx=0;exitDy=0;entryX=0.5;entryY=1;entryDx=0;entryDy=0;startArrow=block;startFill=0;endSize=12;startSize=12;endArrow=none;dashed=1;" edge="1" parent="SMwrROu7gEjUtUbAaYOO-1" source="AUzu9bSogliaFn4EOlXo-0" target="SMwrROu7gEjUtUbAaYOO-17">
          <mxGeometry relative="1" as="geometry">
            <mxPoint x="1260" y="1040" as="sourcePoint" />
          </mxGeometry>
        </mxCell>
        <mxCell id="AUzu9bSogliaFn4EOlXo-0" value="&lt;b&gt;&amp;lt;&amp;lt;interface&amp;gt;&amp;gt;&lt;/b&gt;&lt;div&gt;&lt;b&gt;VehicleOwnership&lt;/b&gt;&lt;/div&gt;" style="swimlane;fontStyle=0;childLayout=stackLayout;horizontal=1;startSize=40;fillColor=none;horizontalStack=0;resizeParent=1;resizeParentMax=0;resizeLast=0;collapsible=1;marginBottom=0;whiteSpace=wrap;html=1;" vertex="1" parent="SMwrROu7gEjUtUbAaYOO-1">
          <mxGeometry x="1040" y="1040" width="440" height="170" as="geometry" />
        </mxCell>
        <mxCell id="AUzu9bSogliaFn4EOlXo-1" value="getRegistrationNumber(): String" style="text;strokeColor=none;fillColor=none;align=left;verticalAlign=top;spacingLeft=4;spacingRight=4;overflow=hidden;rotatable=0;points=[[0,0.5],[1,0.5]];portConstraint=eastwest;whiteSpace=wrap;html=1;" vertex="1" parent="AUzu9bSogliaFn4EOlXo-0">
          <mxGeometry y="40" width="440" height="26" as="geometry" />
        </mxCell>
        <mxCell id="AUzu9bSogliaFn4EOlXo-2" value="setRegistrationNumber(registrationNumber: String): void" style="text;strokeColor=none;fillColor=none;align=left;verticalAlign=top;spacingLeft=4;spacingRight=4;overflow=hidden;rotatable=0;points=[[0,0.5],[1,0.5]];portConstraint=eastwest;whiteSpace=wrap;html=1;" vertex="1" parent="AUzu9bSogliaFn4EOlXo-0">
          <mxGeometry y="66" width="440" height="26" as="geometry" />
        </mxCell>
        <mxCell id="AUzu9bSogliaFn4EOlXo-3" value="getYear(): int" style="text;strokeColor=none;fillColor=none;align=left;verticalAlign=top;spacingLeft=4;spacingRight=4;overflow=hidden;rotatable=0;points=[[0,0.5],[1,0.5]];portConstraint=eastwest;whiteSpace=wrap;html=1;" vertex="1" parent="AUzu9bSogliaFn4EOlXo-0">
          <mxGeometry y="92" width="440" height="26" as="geometry" />
        </mxCell>
        <mxCell id="AUzu9bSogliaFn4EOlXo-4" value="setYear(year: int): void" style="text;strokeColor=none;fillColor=none;align=left;verticalAlign=top;spacingLeft=4;spacingRight=4;overflow=hidden;rotatable=0;points=[[0,0.5],[1,0.5]];portConstraint=eastwest;whiteSpace=wrap;html=1;" vertex="1" parent="AUzu9bSogliaFn4EOlXo-0">
          <mxGeometry y="118" width="440" height="26" as="geometry" />
        </mxCell>
        <mxCell id="AUzu9bSogliaFn4EOlXo-5" value="calculateMaintenanceCost(): double" style="text;strokeColor=none;fillColor=none;align=left;verticalAlign=top;spacingLeft=4;spacingRight=4;overflow=hidden;rotatable=0;points=[[0,0.5],[1,0.5]];portConstraint=eastwest;whiteSpace=wrap;html=1;" vertex="1" parent="AUzu9bSogliaFn4EOlXo-0">
          <mxGeometry y="144" width="440" height="26" as="geometry" />
        </mxCell>
      </root>
    </mxGraphModel>
  </diagram>
</mxfile>
